<svg width="171" height="51" viewBox="0 0 171 51" fill="none" xmlns="http://www.w3.org/2000/svg">
<path fill-rule="evenodd" clip-rule="evenodd" d="M124.799 11.779C125.746 11.449 126.923 11.2841 128.328 11.2841H171V0H130.19C126.204 0 122.569 0.676382 119.285 2.02915C116.018 3.36542 113.322 5.24609 111.198 7.67118C109.091 10.0798 107.776 12.9008 107.253 16.1342C106.616 20.0935 107.384 23.2115 109.556 25.4881C110.641 27.0471 115.05 30.4274 124.015 31.4766C125.812 31.8725 127.225 32.3097 128.254 32.7881C129.283 33.2665 129.994 33.8027 130.386 34.3966C130.778 34.9905 130.909 35.6669 130.778 36.4257C130.647 37.2506 130.28 37.9847 129.675 38.6281C129.071 39.2715 128.246 39.7747 127.2 40.1376C126.155 40.5005 124.897 40.682 123.427 40.682H101.095L94.2266 0H77.579L77.5627 0.0306194H36.6351L32.4473 24.9703L32.4455 24.97L28.2865 50.1762H41.7043L48.1684 11H71.7336L50.924 50.1596H65.6317L70.0094 40.5588H87.274L87.9875 50.1596L102.082 50.1596L102.695 50.1596L123.414 50.1596C129.743 50.1596 136.696 49.6634 140.85 44.8888C142.859 42.5792 144.142 39.7582 144.697 36.4257C145.024 34.4956 145.016 32.7139 144.673 31.0807C144.346 29.4474 143.66 27.9709 142.614 26.6512C141.569 25.3314 140.131 24.1931 138.301 23.2362C136.488 22.2629 134.242 21.4793 131.562 20.8854L127.641 19.9946C126.498 19.7471 125.509 19.4666 124.676 19.1532C123.859 18.8398 123.198 18.4851 122.691 18.0891C122.201 17.6932 121.866 17.256 121.687 16.7776C121.523 16.2827 121.515 15.7383 121.662 15.1444C121.793 14.3855 122.111 13.7174 122.618 13.14C123.141 12.5626 123.868 12.1089 124.799 11.779ZM86.5169 30.3701L85.0609 10.7773H83.5885L74.655 30.3701H86.5169ZM29.1195 0.0306194H1.86087L0 11H27.2775L29.1195 0.0306194Z" fill="white"/>
</svg>
