<svg width="257" height="76" viewBox="0 0 257 76" fill="none" xmlns="http://www.w3.org/2000/svg">
<path fill-rule="evenodd" clip-rule="evenodd" d="M187.227 17.6712C188.649 17.1762 190.413 16.9287 192.521 16.9287H256.54V0L195.315 0C189.335 0 183.882 1.01473 178.955 3.04419C174.053 5.0489 170.009 7.87035 166.823 11.5085C163.662 15.122 161.689 19.3541 160.904 24.2051C159.948 30.1449 161.1 34.8226 164.36 38.238C165.987 40.5769 172.602 45.6481 186.051 47.2221C188.747 47.8161 190.867 48.472 192.411 49.1897C193.955 49.9075 195.021 50.7118 195.609 51.6028C196.197 52.4938 196.394 53.5085 196.197 54.647C196.001 55.8845 195.45 56.9858 194.543 57.9511C193.636 58.9163 192.399 59.6712 190.83 60.2156C189.261 60.7601 187.374 61.0324 185.168 61.0324H151.664L141.36 5.5797e-06L116.385 5.5797e-06L116.36 0.0459403L54.9628 0.0459403L48.6802 37.4609L48.6758 37.4601L42.4363 75.2758H62.5661L72.2637 16.5025H107.615L76.3963 75.251H98.4613L105.029 60.8475H130.93L132 75.251L153.147 75.251L154.065 75.251L185.15 75.251C194.644 75.251 205.075 74.5065 211.307 67.3435C214.322 63.8786 216.246 59.6464 217.079 54.647C217.569 51.7513 217.557 49.0784 217.043 46.6281C216.552 44.1779 215.523 41.9629 213.954 39.9829C212.386 38.0029 210.229 36.2952 207.484 34.8597C204.763 33.3995 201.393 32.2239 197.374 31.3329L191.492 29.9965C189.776 29.6252 188.293 29.2045 187.043 28.7342C185.818 28.264 184.825 27.7319 184.065 27.1379C183.33 26.5439 182.828 25.888 182.558 25.1703C182.313 24.4278 182.301 23.6111 182.521 22.7201C182.717 21.5816 183.195 20.5792 183.955 19.713C184.739 18.8468 185.83 18.1662 187.227 17.6712ZM129.794 45.5621L127.61 16.1684H125.401L111.998 45.5621H129.794ZM43.6876 0.0459403L2.79173 0.0459403L0 16.5025H40.9243L43.6876 0.0459403Z" fill="#D82331"/>
</svg>
